<?xml version="1.0" encoding="UTF-8" standalone="no"?>
<!-- Created with Inkscape (http://www.inkscape.org/) -->

<svg
   width="278.81009mm"
   height="48.43243mm"
   viewBox="0 0 278.81009 48.43243"
   version="1.1"
   id="svg1"
   xml:space="preserve"
   inkscape:version="1.4 (86a8ad7, 2024-10-11)"
   sodipodi:docname="featherless-full.svg"
   xmlns:inkscape="http://www.inkscape.org/namespaces/inkscape"
   xmlns:sodipodi="http://sodipodi.sourceforge.net/DTD/sodipodi-0.dtd"
   xmlns="http://www.w3.org/2000/svg"
   xmlns:svg="http://www.w3.org/2000/svg"><sodipodi:namedview
     id="namedview1"
     pagecolor="#ffffff"
     bordercolor="#000000"
     borderopacity="0.25"
     inkscape:showpageshadow="2"
     inkscape:pageopacity="0.0"
     inkscape:pagecheckerboard="0"
     inkscape:deskcolor="#d1d1d1"
     inkscape:document-units="mm"
     inkscape:zoom="0.72604517"
     inkscape:cx="364.3024"
     inkscape:cy="200.40075"
     inkscape:window-width="1920"
     inkscape:window-height="1017"
     inkscape:window-x="1912"
     inkscape:window-y="-8"
     inkscape:window-maximized="1"
     inkscape:current-layer="g1" /><defs
     id="defs1" /><g
     inkscape:label="Layer 1"
     inkscape:groupmode="layer"
     id="layer1"
     transform="translate(-8.6357657,-8.1321741)"><g
       style="fill:none"
       id="g1"
       transform="matrix(1.2590184,0,0,1.2590184,25.497604,133.3588)"><path
         d="m 28.937589,-97.371405 c -2.230859,-1.368916 -5.245076,-2.092293 -8.71704,-2.092293 -5.318842,0 -11.1790071,1.687239 -16.4415939,4.622239 l -0.036883,-0.01395 c 0,0 -0.00522,0.02808 -0.00807,0.04148 -1.5930449,0.89099 -3.13666419,1.88596 -4.5865238,2.996683 -8.5401763,6.541431 -10.9318923,14.302992 -8.9140724,18.451764 -2.2087789,3.796583 -3.5694979,7.721325 -3.6262509,12.37019 4.246493,-8.141195 6.7952779,-14.739143 20.6328373,-25.84662 -3.9536771,0.852406 -10.787328,4.895372 -15.383414,11.030359 -0.4336167,-3.588822 2.3850967,-9.383914 8.66339237,-14.192481 0.79503223,-0.609003 1.62173163,-1.178217 2.46544433,-1.718297 -0.659298,2.061048 -0.449177,1.548412 -1.8170746,4.438197 2.0228491,-1.926109 3.354733,-3.114684 5.3518758,-6.415582 2.5929823,-1.281353 5.2900318,-2.239068 7.9642308,-2.817882 -0.442471,1.475765 -1.284693,3.976788 -2.42496,5.954111 0,0 2.893883,-0.624091 5.285685,-0.483104 -1.306798,1.450505 -2.482582,3.019582 -3.674881,4.623804 -1.632909,2.196087 -3.320955,4.467058 -5.4825189,6.580934 -0.2601676,0.254455 -0.5089101,0.485191 -0.7611298,0.723378 -3.3215755,-0.319901 -5.5155515,0.929524 -7.57106126,3.136788 1.62111066,-0.760385 3.79881846,-1.386525 5.16398386,-1.009624 -2.5157392,2.063955 -6.4774884,4.784723 -9.7327492,4.560694 -0.6173235,0.945171 -0.6563176,0.974106 -1.3348643,2.115863 5.28034524,1.322322 11.9125681,-4.075378 15.8154536,-7.893321 2.288481,-2.239055 4.03179,-4.582923 5.71698,-6.848677 3.470597,-4.667493 6.467801,-8.697668 13.116293,-10.231352 l 2.713069,-0.625433 z"
         class="logo-mark"
         id="path1"
         style="fill:#ffff84;fill-opacity:1;stroke-width:1.24185" /><path
         d="m 33.161617,-65.526428 v 0.834524 h -8.61347 v -0.834524 l 1.639242,-0.20863 c 0.317913,-0.03974 0.506675,-0.119218 0.566283,-0.238435 0.05961,-0.139088 0.08941,-0.546414 0.08941,-1.221981 v -10.103689 c 0,-0.675567 -0.0298,-1.072959 -0.08941,-1.192176 -0.05961,-0.139087 -0.24837,-0.2285 -0.566283,-0.26824 l -1.639242,-0.20863 v -0.834523 h 2.294939 v -1.609438 c 0,-0.95374 0.158956,-1.857807 0.47687,-2.7122 0.337783,-0.874262 0.894132,-1.579633 1.669046,-2.116112 0.794784,-0.536479 1.857807,-0.804718 3.18907,-0.804718 1.212046,0 2.205525,0.20863 2.98044,0.625892 0.794783,0.417261 1.361067,0.97361 1.69885,1.669046 0.357653,0.695436 0.466936,1.450481 0.327848,2.265134 l -3.278483,0.47687 c 0.198696,-1.490219 0.139087,-2.523438 -0.178826,-3.099657 -0.298044,-0.596088 -0.814654,-0.894132 -1.549829,-0.894132 -0.397392,0 -0.74511,0.109283 -1.043154,0.327849 -0.278174,0.218565 -0.49674,0.615957 -0.655696,1.192176 -0.139088,0.556348 -0.208631,1.380937 -0.208631,2.473764 v 2.205526 h 4.470659 v 1.043153 h -4.470659 v 11.564105 c 0,0.675567 0.0298,1.082893 0.08941,1.221981 0.05961,0.119217 0.24837,0.198696 0.566284,0.238435 z m 15.364662,-2.712199 c -0.357653,1.390871 -1.023284,2.384351 -1.996894,2.980439 -0.97361,0.576218 -2.106177,0.864327 -3.397701,0.864327 -2.384352,0 -4.172615,-0.685501 -5.364791,-2.056503 -1.192176,-1.390871 -1.788264,-3.228809 -1.788264,-5.513813 v -0.596088 c 0,-2.285003 0.556349,-4.113006 1.669046,-5.484008 1.132567,-1.371002 2.761874,-2.056503 4.887921,-2.056503 1.192176,0 2.245264,0.238435 3.159266,0.715305 0.933871,0.457001 1.659111,1.122632 2.175721,1.996894 0.536479,0.874263 0.804718,1.937286 0.804718,3.189071 0,0.298044 -0.01987,0.615957 -0.05961,0.95374 -0.01987,0.337783 -0.06954,0.675567 -0.149022,1.01335 h -8.8221 v 0.864327 c 0,2.106177 0.298044,3.626202 0.894132,4.560073 0.596087,0.914001 1.559763,1.371002 2.891026,1.371002 0.854392,0 1.579633,-0.24837 2.175721,-0.74511 0.596087,-0.51661 0.933871,-1.380937 1.013349,-2.592983 z m -5.990683,-10.818996 c -0.97361,0 -1.698851,0.447066 -2.175721,1.341198 -0.47687,0.894132 -0.715305,2.374417 -0.715305,4.440855 h 5.394595 c 0.07948,-0.397392 0.129152,-0.76498 0.149022,-1.102763 0.03974,-0.357652 0.05961,-0.685501 0.05961,-0.983545 0,-1.271654 -0.24837,-2.205525 -0.74511,-2.801613 -0.49674,-0.596088 -1.152437,-0.894132 -1.96709,-0.894132 z m 23.524484,13.620609 c -0.317913,0.298044 -0.70537,0.546414 -1.162371,0.74511 -0.437131,0.198696 -0.97361,0.298043 -1.609437,0.298043 -0.814654,0 -1.500155,-0.178826 -2.056504,-0.536479 -0.536479,-0.357652 -0.894131,-0.864327 -1.072958,-1.520024 -0.655696,0.715306 -1.380937,1.24185 -2.175721,1.579633 -0.774914,0.317914 -1.569698,0.47687 -2.384351,0.47687 -1.371002,0 -2.394287,-0.377522 -3.069853,-1.132567 -0.675566,-0.774914 -1.013349,-1.738589 -1.013349,-2.891026 0,-1.172306 0.427196,-2.116112 1.281589,-2.831417 0.854392,-0.735175 2.364482,-1.102763 4.530268,-1.102763 h 2.7122 v -2.414156 c 0,-1.649176 -0.218566,-2.771808 -0.655697,-3.367896 -0.417262,-0.615958 -1.003415,-0.923937 -1.758459,-0.923937 -0.49674,0 -0.953741,0.129153 -1.371002,0.387458 -0.417262,0.238435 -0.715306,0.695435 -0.894132,1.371002 -0.158957,0.655696 -0.129153,1.609437 0.08941,2.861222 l -3.278484,-0.476871 c -0.158956,-0.914001 -0.05961,-1.758459 0.298044,-2.533373 0.377523,-0.794784 1.003415,-1.430611 1.877677,-1.907482 0.874263,-0.496739 1.98696,-0.745109 3.338092,-0.745109 1.529959,0 2.7122,0.24837 3.546723,0.745109 0.834523,0.49674 1.410742,1.152437 1.728655,1.96709 0.337783,0.814654 0.506675,1.688916 0.506675,2.622787 v 6.884815 c 0,1.01335 0.08941,1.649177 0.26824,1.907482 0.178826,0.258304 0.377522,0.387457 0.596087,0.387457 0.357653,0 0.755045,-0.208631 1.192176,-0.625893 z m -9.149949,-0.536479 c 0.51661,0 1.023284,-0.129153 1.520024,-0.387458 0.51661,-0.278174 1.053089,-0.784849 1.609438,-1.520024 v -3.427505 h -2.23533 c -0.97361,0 -1.678981,0.2285 -2.116112,0.685501 -0.437131,0.457001 -0.655697,1.172306 -0.655697,2.145916 0,0.794784 0.158957,1.410742 0.476871,1.847873 0.317913,0.437131 0.784849,0.655697 1.400806,0.655697 z m 20.597445,-1.818068 c -0.258305,1.212045 -0.755045,2.086307 -1.49022,2.622786 -0.715306,0.51661 -1.589568,0.774914 -2.622787,0.774914 -1.053088,0 -1.917416,-0.2285 -2.592982,-0.685501 -0.675566,-0.47687 -1.172306,-1.102762 -1.49022,-1.877676 -0.317913,-0.774915 -0.47687,-1.599503 -0.47687,-2.473765 v -7.86836 c 0,-0.675567 -0.0298,-1.072959 -0.08941,-1.192176 -0.05961,-0.139087 -0.24837,-0.2285 -0.566284,-0.26824 l -1.639241,-0.20863 v -0.834523 H 68.8345 v -3.45731 l 3.427505,-0.685501 v 4.142811 h 4.768703 v 1.043153 h -4.768703 v 9.924864 c 0,1.271654 0.158957,2.155851 0.476871,2.652591 0.317913,0.47687 0.72524,0.715305 1.22198,0.715305 0.516609,0 0.914001,-0.198696 1.192176,-0.596088 0.298043,-0.397392 0.486805,-1.122632 0.566283,-2.17572 z m 18.494496,2.265133 v 0.834524 H 87.98469 v -0.834524 l 1.639241,-0.20863 c 0.317914,-0.03974 0.506675,-0.119218 0.566284,-0.238435 0.05961,-0.139088 0.08941,-0.546414 0.08941,-1.221981 v -7.510707 c 0,-1.371002 -0.208631,-2.364482 -0.625892,-2.980439 -0.397392,-0.635828 -0.99348,-0.953741 -1.788264,-0.953741 -0.337783,0 -0.735175,0.08941 -1.192176,0.268239 -0.437131,0.158957 -0.884197,0.457001 -1.341197,0.894132 -0.437132,0.437131 -0.824589,1.082893 -1.162372,1.937286 v 8.34523 c 0,0.675567 0.02981,1.082893 0.08941,1.221981 0.05961,0.119217 0.24837,0.198696 0.566284,0.238435 l 1.639241,0.20863 v 0.834524 h -8.017382 v -0.834524 l 1.639242,-0.20863 c 0.317914,-0.03974 0.506675,-0.119218 0.566284,-0.238435 0.05961,-0.139088 0.08941,-0.546414 0.08941,-1.221981 v -17.048113 c 0,-0.675567 -0.0298,-1.072958 -0.08941,-1.192176 -0.05961,-0.139087 -0.24837,-0.2285 -0.566284,-0.26824 l -1.639242,-0.20863 v -0.834523 h 5.722444 v 9.269166 c 0.576218,-0.914001 1.291524,-1.579633 2.145917,-1.996894 0.874262,-0.417262 1.748524,-0.625892 2.622786,-0.625892 1.47035,0 2.632722,0.466935 3.487114,1.400806 0.854393,0.933871 1.281589,2.255199 1.281589,3.963985 v 7.540511 c 0,0.675567 0.0298,1.082893 0.08941,1.221981 0.05961,0.119217 0.248369,0.198696 0.566283,0.238435 z m 14.460968,-2.712199 c -0.35765,1.390871 -1.02328,2.384351 -1.99689,2.980439 -0.97361,0.576218 -2.10618,0.864327 -3.39771,0.864327 -2.38385,0 -4.17211,-0.685501 -5.36429,-2.056503 -1.192176,-1.390871 -1.788264,-3.228809 -1.788264,-5.513813 v -0.596088 c 0,-2.285003 0.556349,-4.113006 1.669046,-5.484008 1.132568,-1.371002 2.761878,-2.056503 4.887428,-2.056503 1.19217,0 2.24526,0.238435 3.15926,0.715305 0.93387,0.457001 1.65911,1.122632 2.17572,1.996894 0.53648,0.874263 0.80472,1.937286 0.80472,3.189071 0,0.298044 -0.0199,0.615957 -0.0596,0.95374 -0.0199,0.337783 -0.0695,0.675567 -0.14902,1.01335 h -8.8216 v 0.864327 c 0,2.106177 0.29804,3.626202 0.89413,4.560073 0.59609,0.914001 1.55927,1.371002 2.89053,1.371002 0.85439,0 1.57963,-0.24837 2.17572,-0.74511 0.59609,-0.51661 0.93387,-1.380937 1.01335,-2.592983 z m -5.99068,-10.818996 c -0.97361,0 -1.69836,0.447066 -2.17523,1.341198 -0.47687,0.894132 -0.7153,2.374417 -0.7153,4.440855 h 5.3941 c 0.0795,-0.397392 0.12915,-0.76498 0.14902,-1.102763 0.0397,-0.357652 0.0596,-0.685501 0.0596,-0.983545 0,-1.271654 -0.24837,-2.205525 -0.74511,-2.801613 -0.49674,-0.596088 -1.15244,-0.894132 -1.96709,-0.894132 z m 8.32536,0.08941 v -0.834523 h 5.54361 v 2.44396 c 1.21205,-1.828003 2.6526,-2.742004 4.32164,-2.742004 0.61596,0 1.21205,0.198696 1.78827,0.596087 0.57621,0.377523 1.05308,1.092828 1.43061,2.145917 l -2.65259,1.430611 c -0.27818,-0.814654 -0.60603,-1.361068 -0.98355,-1.639242 -0.35765,-0.298044 -0.74511,-0.447066 -1.16237,-0.447066 -0.43713,0 -0.86433,0.139087 -1.28159,0.417262 -0.41726,0.278174 -0.84446,0.794784 -1.28159,1.549828 v 8.851905 c 0,0.675567 0.0298,1.082893 0.0894,1.221981 0.0596,0.119217 0.24837,0.198696 0.56629,0.238435 l 2.23533,0.20863 v 0.834524 h -8.61347 v -0.834524 l 1.63924,-0.20863 c 0.31791,-0.03974 0.50667,-0.119218 0.56628,-0.238435 0.0596,-0.139088 0.0894,-0.546414 0.0894,-1.221981 v -10.103689 c 0,-0.675567 -0.0298,-1.072959 -0.0894,-1.192176 -0.0596,-0.139087 -0.24837,-0.2285 -0.56628,-0.26824 z m 16.26947,-7.033838 0.11921,-0.745109 h 4.08321 l -3.06986,17.584592 c -0.17882,1.01335 -0.27817,1.788264 -0.29804,2.324743 0,0.536479 0.0596,0.914002 0.17883,1.132567 0.11921,0.198696 0.28811,0.298044 0.50667,0.298044 0.29805,0 0.62589,-0.188761 0.98355,-0.566283 0.37752,-0.377523 0.70537,-0.99348 0.98354,-1.847873 l 0.98355,0.655697 c -0.43713,0.894132 -0.93387,1.559763 -1.49022,1.996894 -0.55635,0.417262 -1.12264,0.625893 -1.69885,0.625893 -0.81466,0 -1.41074,-0.337784 -1.78827,-1.01335 -0.37752,-0.695436 -0.43713,-1.818068 -0.17882,-3.367896 l 2.68239,-15.468481 c 0.11922,-0.695436 0.15896,-1.102763 0.11922,-1.22198 -0.0397,-0.139088 -0.20863,-0.218566 -0.50668,-0.238436 z m 18.18565,18.389312 c -0.69544,1.212045 -1.5697,2.056503 -2.62279,2.533373 -1.05309,0.457001 -2.07637,0.685501 -3.06985,0.685501 -1.33127,0 -2.43403,-0.317913 -3.30829,-0.95374 -0.85439,-0.655697 -1.45048,-1.569698 -1.78827,-2.742004 -0.31791,-1.172307 -0.33778,-2.523439 -0.0596,-4.053398 l 0.11921,-0.655697 c 0.23844,-1.331263 0.6855,-2.493634 1.3412,-3.487114 0.6557,-1.013349 1.48029,-1.798198 2.47377,-2.354547 1.01335,-0.576218 2.15585,-0.864328 3.4275,-0.864328 0.99348,0 1.83794,0.168892 2.53337,0.506675 0.69544,0.337783 1.22198,0.784849 1.57964,1.341198 0.35765,0.536479 0.53648,1.112697 0.53648,1.728655 0,0.97361 -0.35766,1.808133 -1.07296,2.503569 -0.71531,0.695436 -1.70879,1.24185 -2.98044,1.639242 -1.25179,0.397392 -2.69233,0.655696 -4.32164,0.774914 l -1.84787,0.119217 c -0.23844,1.887612 -0.0596,3.298353 0.53648,4.232225 0.59609,0.914001 1.52996,1.371002 2.80161,1.371002 0.51661,0 1.06303,-0.08941 1.63924,-0.26824 0.59609,-0.178826 1.14251,-0.47687 1.63925,-0.894132 0.5166,-0.437131 0.90406,-1.043154 1.16237,-1.818068 z m -8.67308,-5.573422 -0.23844,1.430611 1.66905,-0.119218 c 1.76839,-0.119217 3.12946,-0.387457 4.0832,-0.804718 0.95374,-0.437131 1.60944,-0.953741 1.96709,-1.549829 0.37752,-0.615957 0.56628,-1.22198 0.56628,-1.818068 0,-0.814653 -0.26824,-1.440545 -0.80472,-1.877677 -0.51661,-0.457 -1.22198,-0.685501 -2.11611,-0.685501 -1.15243,0 -2.21546,0.427197 -3.18907,1.281589 -0.97361,0.854393 -1.61937,2.23533 -1.93728,4.142811 z m 16.50791,8.792296 c -1.41075,0 -2.54331,-0.298043 -3.39771,-0.894131 -0.85439,-0.596088 -1.31139,-1.500155 -1.371,-2.7122 l 1.52003,-0.476871 c 0.0199,0.854393 0.17882,1.520025 0.47687,1.996895 0.29804,0.457001 0.6855,0.774914 1.16237,0.95374 0.49674,0.178827 1.04315,0.26824 1.63924,0.26824 0.71531,0 1.38094,-0.09935 1.99689,-0.298044 0.63583,-0.218565 1.14251,-0.546414 1.52003,-0.983545 0.37752,-0.437131 0.56628,-0.99348 0.56628,-1.669046 0,-0.635827 -0.20863,-1.202111 -0.62589,-1.69885 -0.39739,-0.51661 -1.09283,-0.904067 -2.08631,-1.162372 l -1.78826,-0.47687 c -0.89413,-0.238435 -1.5995,-0.675566 -2.11611,-1.311394 -0.49674,-0.635827 -0.74511,-1.390871 -0.74511,-2.265134 0,-0.695435 0.16889,-1.371002 0.50667,-2.026698 0.33778,-0.675567 0.8842,-1.231915 1.63924,-1.669046 0.75505,-0.457001 1.74853,-0.685502 2.98044,-0.685502 1.3114,0 2.32475,0.228501 3.04005,0.685502 0.71531,0.457 1.17231,1.043153 1.371,1.758459 0.1987,0.715305 0.15896,1.460415 -0.11921,2.235329 l -1.81807,0.476871 c 0.51661,-1.371002 0.52654,-2.424091 0.0298,-3.159266 -0.47687,-0.735175 -1.3412,-1.102763 -2.59298,-1.102763 -1.05309,0 -1.90748,0.258305 -2.56318,0.774915 -0.63583,0.516609 -0.95374,1.22198 -0.95374,2.116112 0,1.331263 0.74511,2.19559 2.23533,2.592982 l 1.78826,0.47687 c 0.99348,0.258305 1.78827,0.735175 2.38436,1.430611 0.59608,0.695436 0.89413,1.520024 0.89413,2.473765 0,0.695436 -0.18876,1.380937 -0.56629,2.056503 -0.37752,0.655697 -0.97361,1.202111 -1.78826,1.639242 -0.81465,0.437131 -1.88761,0.655696 -3.21887,0.655696 z m 13.47531,0 c -1.41074,0 -2.54331,-0.298043 -3.3977,-0.894131 -0.8544,-0.596088 -1.3114,-1.500155 -1.37101,-2.7122 l 1.52003,-0.476871 c 0.0199,0.854393 0.17882,1.520025 0.47687,1.996895 0.29804,0.457001 0.6855,0.774914 1.16237,0.95374 0.49674,0.178827 1.04315,0.26824 1.63924,0.26824 0.71531,0 1.38094,-0.09935 1.9969,-0.298044 0.63582,-0.218565 1.1425,-0.546414 1.52002,-0.983545 0.37752,-0.437131 0.56628,-0.99348 0.56628,-1.669046 0,-0.635827 -0.20863,-1.202111 -0.62589,-1.69885 -0.39739,-0.51661 -1.09283,-0.904067 -2.08631,-1.162372 l -1.78826,-0.47687 c -0.89413,-0.238435 -1.5995,-0.675566 -2.11611,-1.311394 -0.49674,-0.635827 -0.74511,-1.390871 -0.74511,-2.265134 0,-0.695435 0.16889,-1.371002 0.50667,-2.026698 0.33779,-0.675567 0.8842,-1.231915 1.63924,-1.669046 0.75505,-0.457001 1.74853,-0.685502 2.98044,-0.685502 1.3114,0 2.32475,0.228501 3.04005,0.685502 0.71531,0.457 1.17231,1.043153 1.371,1.758459 0.1987,0.715305 0.15896,1.460415 -0.11921,2.235329 l -1.81807,0.476871 c 0.51661,-1.371002 0.52654,-2.424091 0.0298,-3.159266 -0.47687,-0.735175 -1.34119,-1.102763 -2.59298,-1.102763 -1.05309,0 -1.90748,0.258305 -2.56318,0.774915 -0.63582,0.516609 -0.95374,1.22198 -0.95374,2.116112 0,1.331263 0.74511,2.19559 2.23533,2.592982 l 1.78827,0.47687 c 0.99348,0.258305 1.78826,0.735175 2.38435,1.430611 0.59609,0.695436 0.89413,1.520024 0.89413,2.473765 0,0.695436 -0.18876,1.380937 -0.56628,2.056503 -0.37753,0.655697 -0.97361,1.202111 -1.78827,1.639242 -0.81465,0.437131 -1.88761,0.655696 -3.21887,0.655696 z m 9.21452,-1.251784 c 0,-0.437131 0.13909,-0.804719 0.41726,-1.102763 0.29805,-0.298044 0.67557,-0.447066 1.13257,-0.447066 0.39739,0 0.71531,0.109283 0.95374,0.327849 0.25831,0.218565 0.38746,0.526544 0.38746,0.923936 0,0.437131 -0.14902,0.804719 -0.44707,1.102763 -0.27817,0.298044 -0.64576,0.447065 -1.10276,0.447065 -0.39739,0 -0.72524,-0.109282 -0.98354,-0.327848 -0.23844,-0.218565 -0.35766,-0.526544 -0.35766,-0.923936 z"
         fill="currentColor"
         id="path2"
         style="stroke-width:1.24185" /><path
         d="m 196.04263,-64.542882 c -0.67557,0 -1.20211,-0.228501 -1.57963,-0.685502 -0.37753,-0.457 -0.55635,-1.172306 -0.53648,-2.145916 -0.71531,1.072958 -1.47035,1.837938 -2.26514,2.294938 -0.79478,0.457001 -1.60943,0.685501 -2.44396,0.685501 -1.13256,0 -2.06644,-0.357652 -2.80161,-1.072958 -0.73518,-0.715305 -1.23192,-1.669046 -1.49022,-2.861222 -0.2583,-1.212045 -0.2583,-2.543308 0,-3.993788 l 0.11922,-0.655697 c 0.23843,-1.331263 0.6855,-2.4837 1.3412,-3.45731 0.67556,-0.97361 1.48028,-1.728655 2.41415,-2.265134 0.93387,-0.536479 1.93729,-0.804719 3.01025,-0.804719 0.87426,0 1.6293,0.178827 2.26513,0.53648 0.63583,0.337783 1.16237,0.814653 1.57963,1.430611 0.13909,-0.278175 0.27818,-0.556349 0.41726,-0.834524 0.13909,-0.298043 0.27818,-0.576218 0.41727,-0.834523 h 1.19217 l -1.78826,10.044081 c -0.17883,1.01335 -0.27818,1.788264 -0.29805,2.324743 0,0.536479 0.0596,0.914002 0.17883,1.132567 0.11922,0.198696 0.28811,0.298044 0.50667,0.298044 0.29805,0 0.6259,-0.188761 0.98355,-0.566283 0.37752,-0.377523 0.70537,-0.99348 0.98354,-1.847873 l 0.98355,0.655697 c -0.43713,0.894132 -0.93387,1.559763 -1.49022,1.996894 -0.55635,0.417262 -1.12263,0.625893 -1.69885,0.625893 z m -9.26917,-6.884816 c -0.31791,1.867742 -0.2285,3.357962 0.26824,4.47066 0.51661,1.112697 1.29153,1.669046 2.32474,1.669046 0.45701,0 0.94381,-0.109283 1.46042,-0.327849 0.51661,-0.218565 1.05309,-0.615957 1.60944,-1.192175 0.55635,-0.596088 1.12263,-1.440546 1.69885,-2.533374 l 1.22198,-6.825206 c -0.37752,-0.834523 -0.84446,-1.450481 -1.40081,-1.847873 -0.55635,-0.397392 -1.26172,-0.596088 -2.11611,-0.596088 -1.29152,0 -2.34461,0.476871 -3.15927,1.430611 -0.79478,0.953741 -1.33126,2.275069 -1.60943,3.963985 z m 19.55541,-11.653518 c -0.37752,0 -0.67557,-0.09935 -0.89413,-0.298044 -0.21857,-0.218565 -0.32785,-0.516609 -0.32785,-0.894132 0,-0.417261 0.13909,-0.774914 0.41726,-1.072958 0.29805,-0.298044 0.66563,-0.447066 1.10276,-0.447066 0.3974,0 0.70538,0.109283 0.92394,0.327849 0.21857,0.198696 0.32785,0.47687 0.32785,0.834523 0,0.397392 -0.14902,0.755044 -0.44707,1.072958 -0.27817,0.317913 -0.64576,0.47687 -1.10276,0.47687 z m -4.0534,4.619681 0.11922,-0.74511 h 4.0832 l -1.75846,10.044081 c -0.17882,1.01335 -0.27817,1.788264 -0.29804,2.324743 0,0.536479 0.0596,0.914002 0.17883,1.132567 0.11921,0.198696 0.28811,0.298044 0.50667,0.298044 0.29804,0 0.62589,-0.188761 0.98355,-0.566283 0.37752,-0.377523 0.70537,-0.99348 0.98354,-1.847873 l 0.98355,0.655697 c -0.43714,0.894132 -0.93388,1.559763 -1.49022,1.996894 -0.55635,0.417262 -1.12264,0.625893 -1.69885,0.625893 -0.81466,0 -1.41075,-0.337784 -1.78827,-1.01335 -0.37752,-0.695436 -0.43713,-1.818068 -0.17882,-3.367896 l 1.371,-7.927969 c 0.11922,-0.695436 0.15895,-1.102763 0.11922,-1.221981 -0.0397,-0.139087 -0.20864,-0.218565 -0.50668,-0.238435 z"
         fill="currentColor"
         fill-opacity="0.5"
         id="path3"
         style="stroke-width:1.24185" /></g></g></svg>
